<?xml version="1.0" standalone="no"?>
<!DOCTYPE svg PUBLIC "-//W3C//DTD SVG 20010904//EN"
 "http://www.w3.org/TR/2001/REC-SVG-20010904/DTD/svg10.dtd">
<svg version="1.0" xmlns="http://www.w3.org/2000/svg"
 width="528.000000pt" height="528.000000pt" viewBox="0 0 528.000000 528.000000"
 preserveAspectRatio="xMidYMid meet">
<metadata>
Created by potrace 1.11, written by Peter Selinger 2001-2013
</metadata>
<g transform="translate(0.000000,528.000000) scale(0.100000,-0.100000)"
fill="#000000" stroke="none">
<path d="M1548 4435 c-2 -1 -32 -5 -68 -9 -36 -3 -76 -8 -90 -12 -14 -3 -38
-7 -55 -10 -73 -12 -315 -108 -335 -133 -3 -3 -24 -18 -46 -33 -65 -42 -180
-162 -229 -238 -143 -223 -205 -427 -199 -656 1 -60 5 -121 8 -137 3 -15 11
-55 17 -89 42 -241 213 -562 451 -848 161 -193 504 -547 737 -760 57 -52 109
-100 115 -105 96 -91 427 -351 561 -440 33 -22 62 -42 65 -45 3 -3 16 -11 30
-18 14 -7 47 -26 74 -41 l48 -28 67 40 c108 65 289 191 387 269 50 40 108 87
129 103 21 17 43 35 49 40 6 6 40 35 76 65 36 30 67 57 70 60 3 3 61 57 130
120 131 121 397 384 515 511 143 153 163 176 234 264 91 112 224 314 279 421
54 106 104 238 130 344 32 127 33 135 36 265 4 135 -12 249 -50 365 -25 77
-93 222 -106 228 -5 2 -8 8 -8 13 0 18 -88 135 -145 194 -156 158 -350 253
-595 290 -100 15 -292 17 -370 4 -30 -5 -73 -11 -95 -15 -241 -37 -470 -182
-688 -434 l-47 -55 -42 50 c-158 187 -327 315 -508 386 -30 11 -59 22 -65 23
-113 25 -171 36 -225 42 -49 6 -238 12 -242 9z"/>
</g>
</svg>
